<?xml version="1.0" encoding="UTF-8" standalone="no"?>
<svg
   id="Layer"
   viewBox="0 0 422.42816 138.79782"
   version="1.1"
   sodipodi:docname="grad.svg"
   inkscape:version="1.2.2 (b0a84865, 2022-12-01)"
   width="422.42819"
   height="138.79782"
   xmlns:inkscape="http://www.inkscape.org/namespaces/inkscape"
   xmlns:sodipodi="http://sodipodi.sourceforge.net/DTD/sodipodi-0.dtd"
   xmlns="http://www.w3.org/2000/svg"
   xmlns:svg="http://www.w3.org/2000/svg">
  <sodipodi:namedview
     id="namedview676"
     pagecolor="#ffffff"
     bordercolor="#666666"
     borderopacity="1.0"
     inkscape:showpageshadow="2"
     inkscape:pageopacity="0.0"
     inkscape:pagecheckerboard="0"
     inkscape:deskcolor="#d1d1d1"
     showgrid="false"
     inkscape:zoom="1.6250153"
     inkscape:cx="203.99808"
     inkscape:cy="118.76811"
     inkscape:window-width="1440"
     inkscape:window-height="784"
     inkscape:window-x="0"
     inkscape:window-y="25"
     inkscape:window-maximized="1"
     inkscape:current-layer="Layer" />
  <defs
     id="defs667">
    <style
       id="style662">
      .cls-1 {
        clip-path: url(#clippath);
      }

      .cls-2 {
        fill: none;
      }

      .cls-2, .cls-3 {
        stroke-width: 0px;
      }

      .cls-3 {
        fill: #fff;
      }
    </style>
    <clipPath
       id="clippath">
      <rect
         class="cls-2"
         x="-50.759998"
         y="-101.07"
         width="628.54999"
         height="549.5"
         id="rect664" />
    </clipPath>
    <clipPath
       clipPathUnits="userSpaceOnUse"
       id="clipPath961">
      <path
         id="path963"
         style="fill:#4d4d4d;stroke:#000000;stroke-width:1.62898;stroke-linecap:round;stroke-linejoin:round"
         d="M 0.96225101,-0.96225101 H 298.29782 V 421.46594 H 0.96225101 Z" />
    </clipPath>
  </defs>
  <g
     id="g807"
     clip-path="url(#clipPath961)"
     transform="rotate(90,290.48297,130.98297)"
     style="fill:#ffffff">
    <g
       class="cls-1"
       clip-path="url(#clippath)"
       id="g671"
       style="fill:#ffffff">
      <path
         class="cls-3"
         d="m 448.26,-6.88 c -1.7,6.23 -6.1,11.34 -10.62,15.95 -12.34,12.59 -26.98,23.77 -34.4,39.76 -1.82,3.93 -3.18,8.21 -2.8,12.52 0.79,8.94 8.66,15.55 16.57,19.8 7.91,4.25 25.31,5.6 22.69,14.19 -3.76,12.3 -23.66,10.98 -31.15,21.44 -2.11,2.95 -4,6.41 -3.6,10.01 0.78,6.95 9,10.08 15.88,11.35 21.77,4.03 44.16,4.36 65.74,9.31 34.12,7.82 66.09,28.13 83.89,58.28 8.27,14.01 11.82,35.08 -1.73,44.09 -5.53,3.68 -12.54,4.18 -19.18,4.13 -17.72,-0.13 -35.42,-3.35 -52.05,-9.48 -19.97,-7.37 -38.57,-18.92 -59.5,-22.81 -7.08,-1.32 -14.65,-1.67 -21.25,1.22 -6.6,2.89 -11.86,9.75 -10.99,16.9 1.41,11.54 15.47,15.72 26.34,19.82 7.83,2.95 15.18,7.15 21.7,12.39 5.41,4.34 10.66,10.79 8.91,17.5 -2.56,9.8 -16.1,10.22 -26.15,9 -9.14,-1.11 -18.33,-1.8 -27.53,-2.06 -1.99,-0.06 -4.1,-0.07 -5.83,0.92 -3.77,2.15 -3.65,8 -0.98,11.42 2.67,3.42 6.92,5.09 10.86,6.91 15.32,7.1 28.54,18.66 37.61,32.91 2.55,4.01 4.85,8.51 4.59,13.26 -0.36,6.6 -5.74,12.08 -11.88,14.51 -6.14,2.43 -12.95,2.39 -19.55,2.16 -32.99,-1.17 -30.97,10.24 -62.73,1.2 -5.43,-1.54 -20.52,6.76 -25.3,9.77 -2.88,1.81 -12.3,3.06 -14.05,5.98 -8.65,14.45 -27.32,30.22 -41.56,39.23 -2.02,1.28 0.14,0.71 -12.05,-14.17 -11.62,-15.45 -10.38,-13.89 -11.94,-15.65 -18.81,-21.29 -31.86,-39.2 -47.38,-67.93 -10.46,-24.56 -18.07,-53.75 -15.56,-79.73 5.36,-48.9 22.65,-73.37 44.84,-101.43 40.56532,-44.31281 66.07401,-67.347286 62.4128,-184.56561 -13.58,-38.34 -61.8528,-5.60439 -82.8028,-40.46439 -2.12,-3.52 -4.31,-7.42 -3.73,-11.48 0.66,-4.55 4.59,-7.86 8.49,-10.3 23.28,-14.6 55.56,-13.11 77.39,3.59 11.45,8.76 21.14,21.67 35.41,23.75 7.64,1.11 15.3,-1.17 22.83,-2.84 19.91,-4.42 52.97,-8.49 71.32,3.35 13.24,8.54 22.65,42.3 18.81,56.33"
         id="path669"
         style="fill:#ffffff"
         sodipodi:nodetypes="ccccsccccccccccscccccccscccsccccccccccccccccccc" />
    </g>
    <path
       id="polygon673"
       style="fill:#ffffff;stroke-width:0px"
       class="cls-3"
       d="m 174.45,254.72 h 21.35 v 42.47 h -30.37 v 2.26 h -5.93 v -3.09 h 4.51 v -1.3 h -4.51 v -3.09 h 4.51 v -1.66 h -4.51 v -3.08 h 4.51 v -1.19 h -4.51 v -3.08 h 5.93 v 2.36 h 9.02 z" />
  </g>
</svg>
