<?xml version="1.0" encoding="UTF-8" standalone="no"?>
<svg
   id="Layer"
   viewBox="0 0 730.62158 606.0127"
   version="1.1"
   sodipodi:docname="_LOGO-15.svg"
   width="730.62158"
   height="606.0127"
   inkscape:version="1.2.2 (b0a84865, 2022-12-01)"
   xmlns:inkscape="http://www.inkscape.org/namespaces/inkscape"
   xmlns:sodipodi="http://sodipodi.sourceforge.net/DTD/sodipodi-0.dtd"
   xmlns="http://www.w3.org/2000/svg"
   xmlns:svg="http://www.w3.org/2000/svg">
  <sodipodi:namedview
     id="namedview413"
     pagecolor="#ffffff"
     bordercolor="#666666"
     borderopacity="1.0"
     inkscape:showpageshadow="2"
     inkscape:pageopacity="0.0"
     inkscape:pagecheckerboard="0"
     inkscape:deskcolor="#d1d1d1"
     showgrid="false"
     inkscape:zoom="0.21851852"
     inkscape:cx="368.38983"
     inkscape:cy="302.0339"
     inkscape:window-width="1440"
     inkscape:window-height="784"
     inkscape:window-x="0"
     inkscape:window-y="25"
     inkscape:window-maximized="1"
     inkscape:current-layer="Layer" />
  <defs
     id="defs382">
    <style
       id="style374">
      .cls-1 {
        clip-path: url(#clippath);
      }
      .cls-2 {
        fill: none;
      }
      .cls-2, .cls-3 {
        stroke-width: 0px;
      }
      .cls-4 {
        clip-path: url(#clippath-1);
      }
      .cls-3 {
        fill: #231f20;
      }
    </style>
    <clipPath
       id="clippath">
      <rect
         class="cls-2"
         x="-9.2600002"
         y="-8.6999998"
         width="1098.53"
         height="1089.7"
         id="rect376" />
    </clipPath>
    <clipPath
       id="clippath-1">
      <rect
         class="cls-2"
         x="-9.2600002"
         y="-8.6999998"
         width="1098.53"
         height="1089.7"
         id="rect379" />
    </clipPath>
  </defs>
  <g
     class="cls-1"
     clip-path="url(#clippath)"
     id="g386"
     transform="translate(-174.94234,-239.09)">
    <path
       class="cls-3"
       d="m 347.87,506.6 -11.68,11.63 -26.81,26.86 -11.68,11.63 -13.4,13.4 c -7.41,7.41 -19.42,7.44 -26.86,0 l -25.04,-25.04 26.83,-26.83 11.63,11.63 11.68,-11.63 26.81,-26.86 11.68,-11.63 26.79,-26.83 11.68,-11.68 26.83,-26.79 11.63,-11.68 11,-11 53.69,-0.02 -37.86,37.86 -11.63,11.68 -26.83,26.79 -11.68,11.68 -26.79,26.83 z"
       id="path384" />
  </g>
  <polygon
     class="cls-3"
     points="644.06,364.31 617.22,391.11 616.57,391.77 562.96,391.77 578.75,375.98 590.42,364.31 617.26,337.5 619.01,335.72 672.61,335.72 655.7,352.63 "
     id="polygon388"
     transform="translate(-174.94234,-239.09)" />
  <polygon
     class="cls-3"
     points="490.13,364.31 463.32,391.14 462.66,391.77 408.99,391.77 424.81,375.94 436.48,364.31 463.29,337.47 465.04,335.72 518.71,335.72 501.8,352.67 "
     id="polygon390"
     transform="translate(-174.94234,-239.09)" />
  <g
     class="cls-4"
     clip-path="url(#clippath-1)"
     id="g410"
     transform="translate(-174.94234,-239.09)">
    <path
       class="cls-3"
       d="m 490.11,441.26 -26.83,26.83 -11.63,11.68 -26.83,26.79 -11.68,11.68 -26.79,26.83 -11.68,11.63 -26.81,26.86 -11.68,11.63 -13.41,13.41 c -7.37,7.37 -19.23,7.44 -26.67,0.19 l -0.3,-0.3 c -7.25,-7.39 -7.2,-19.33 0.14,-26.67 l 25.08,-25.09 26.86,-26.81 11.63,-11.68 65.3,-65.3 11.68,-11.63 26.81,-26.86 22.68,-22.68 15.83,-15.78 11.63,-11.68 28.58,-28.58 h 53.62 l -28.58,28.58 -26.79,26.83 -0.68,0.63 -11,11 -26.81,26.86 -11.68,11.63 z"
       id="path392" />
    <path
       class="cls-3"
       d="m 259.24,518.26 -26.83,26.83 -52.04,-52.04 c -7.27,-7.41 -7.25,-19.33 0.14,-26.72 l 13.4,-13.41 11.68,-11.63 26.81,-26.86 11.68,-11.63 11,-11.05 27.46,-27.46 26.83,-26.79 1.75,-1.79 h 53.62 c 0,0 -16.9,16.95 -16.9,16.95 l -38.49,38.49 -0.65,0.61 -11.01,11.05 -76.96,76.96 38.49,38.49 z"
       id="path394" />
    <path
       class="cls-3"
       d="m 564.61,544.03 c 0.2,-0.23 0.43,-0.49 0.66,-0.72 0.23,-0.23 0.49,-0.46 0.72,-0.66 l -1.38,1.39 z m 27.56,-0.73 -13.42,-13.42 -11.64,-11.64 -26.84,26.84 26.15,26.15 c 7.25,6.2 18.1,6.03 25.16,-0.49 l 1.12,-1.12 c 6.89,-7.48 6.69,-19.09 -0.53,-26.31"
       id="path396" />
    <path
       class="cls-3"
       d="m 784.58,377.72 c -7.42,7.42 -19.42,7.42 -26.84,0 l -13.42,-13.42 -11.64,-11.64 -11.64,11.64 -26.84,26.84 -0.63,0.63 -11.01,11.04 -26.84,26.8 -11.67,11.67 -26.8,26.84 -11.67,11.64 -26.8,26.84 -11.67,11.64 -26.84,26.84 -11.64,11.67 -26.84,26.8 -11.64,11.67 -26.84,26.84 -11.67,11.64 -26.8,26.84 -11.67,11.67 25.39,25.39 c 7.09,7.42 6.96,19.19 -0.33,26.48 -7.29,7.29 -19.42,7.42 -26.84,0 L 372.91,685.6 c -7.42,-7.42 -7.42,-19.42 0,-26.84 l 13.42,-13.39 11.67,-11.67 26.8,-26.84 11.67,-11.64 26.84,-26.84 11.64,-11.67 26.84,-26.8 11.64,-11.67 26.84,-26.84 11.67,-11.64 26.81,-26.84 11.67,-11.64 26.8,-26.84 22.68,-22.68 15.83,-15.79 11.64,-11.67 26.84,-26.84 1.75,-1.75 h 73.46 l 15.17,15.17 c 7.42,7.42 7.42,19.42 0,26.84"
       id="path398" />
    <path
       class="cls-3"
       d="M 900.19,493.06 553.26,839.99 c -7.32,6.85 -18.81,6.83 -26.11,-0.14 -0.12,-0.07 -0.21,-0.16 -0.3,-0.26 -0.14,-0.14 -0.23,-0.23 -0.33,-0.37 -7.09,-7.41 -6.97,-19.19 0.33,-26.48 l 25.08,-25.09 26.81,-26.86 11.68,-11.63 26.83,-26.83 11.63,-11.68 26.83,-26.79 11.63,-11.68 26.83,-26.83 11.68,-11.63 26.81,-26.86 11.68,-11.63 26.79,-26.83 19.49,-19.49 19.02,-18.98 11.63,-11.68 51.9,-51.9 c 7.41,-7.41 19.44,-7.41 26.86,0 7.34,7.39 7.37,19.3 0.14,26.72"
       id="path400" />
    <path
       class="cls-3"
       d="m 694.22,545.07 -11.68,11.63 -26.81,26.86 -11.68,11.63 -26.83,26.83 -11.63,11.68 -26.83,26.79 -11.63,11.68 -26.83,26.83 -11.68,11.63 -26.81,26.86 -11.66,11.66 -13.43,13.38 c -7.39,7.39 -19.28,7.44 -26.72,0.14 l -0.26,-0.26 c -7.25,-7.39 -7.2,-19.33 0.14,-26.67 l 25.09,-25.09 26.86,-26.81 11.63,-11.68 65.3,-65.3 11.68,-11.63 26.81,-26.86 11.66,-11.66 26.86,-26.81 11.63,-11.68 65.3,-65.3 11.68,-11.63 26.81,-26.86 25.08,-25.08 c 7.34,-7.34 19.28,-7.39 26.67,-0.14 l 0.3,0.3 c 0.7,0.7 1.31,1.45 1.84,2.26 1.86,2.56 2.98,5.5 3.38,8.51 0.12,0.91 0.16,1.8 0.12,2.68 0,4.8 -1.89,9.58 -5.53,13.22 l -51.9,51.9 -11.63,11.68 -26.83,26.79 -11.68,11.68 -26.79,26.83 z"
       id="path402" />
    <path
       class="cls-3"
       d="M 616.56,391.79 514.8,493.55 c -7.44,7.06 -19.14,6.93 -26.41,-0.35 l -25.11,-25.11 26.83,-26.83 11.68,11.68 11.68,-11.63 26.81,-26.86 11.68,-11.63 11,-11.05 z"
       id="path404" />
    <path
       class="cls-3"
       d="M 809.67,529.92 790.65,548.9 V 448.61 l 32.41,-32.41 c 3.64,-3.64 5.53,-8.42 5.53,-13.22 h 0.05 v 107.94 l -7.32,7.32 -11.63,11.68 z"
       id="path406" />
    <path
       class="cls-3"
       d="m 878.74,240.23 v 45.54 L 837.7,239.1 h -3.79 v 68.67 h 10.85 v -45.74 l 41.14,46.87 h 3.68 v -68.67 h -10.85 z m -96.26,46.97 h -22.62 l 11.36,-27.94 z m 8.7,20.57 h 11.67 L 773.07,239.1 h -3.68 l -29.78,68.67 h 11.56 l 4.81,-11.26 h 30.4 l 4.81,11.26 z m -93.5,0 h 10.85 v -67.54 h -10.85 z m -48.27,-67.54 v 45.54 L 608.37,239.1 h -3.79 v 68.67 h 10.85 v -45.74 l 41.14,46.87 h 3.68 V 240.23 H 649.4 Z m -123.38,67.54 h 45.64 v -9.72 h -34.79 v -21.39 h 25.28 v -9.41 h -25.28 v -17.29 h 33.57 v -9.72 h -44.41 v 67.54 z m -43.25,-67.54 -19.44,46.97 -19.45,-46.97 h -12.18 l 29.78,68.67 h 3.68 l 29.78,-68.67 h -12.18 z m -87.26,33.67 c 0,14.43 -10.44,25.07 -24.25,25.07 -13.81,0 -24.25,-10.64 -24.25,-25.07 0,-14.43 10.23,-24.87 24.25,-24.87 14.02,0 24.25,10.74 24.25,24.87 m -59.76,0.1 c -0.41,19.34 16.07,35.2 35.41,34.9 19.14,0.31 35.92,-15.55 35.51,-34.9 0.41,-19.34 -16.37,-35.2 -35.51,-34.9 -19.24,-0.31 -35.72,15.56 -35.41,34.9 m -67.4,33.77 h 41.75 v -9.72 H 279.2 v -57.82 h -10.85 v 67.54 z m -82.34,-13.51 c 5.22,9.11 14.43,14.63 25.48,14.63 13,0 22.62,-7.78 22.62,-19.55 0,-8.9 -5.22,-14.22 -16.17,-19.24 l -7.57,-3.48 c -6.65,-3.38 -9,-4.3 -9.41,-9.62 0,-5.32 4.5,-8.19 10.23,-8.19 5.73,0 10.64,2.87 14.23,8.19 l 7.57,-5.83 c -4.2,-7.27 -12.28,-12.08 -21.8,-12.08 -11.67,0 -21.29,7.27 -21.29,18.32 0,9 5.93,14.22 15.76,18.73 l 7.47,3.48 c 7.06,3.28 9.93,5.32 9.93,10.13 0,5.73 -4.71,9.42 -11.67,9.42 -7.78,0 -13.2,-4.2 -17.71,-10.74 z"
       id="path408" />
  </g>
</svg>