<?xml version="1.0" encoding="UTF-8"?>
<svg id="Layer" xmlns="http://www.w3.org/2000/svg" xmlns:xlink="http://www.w3.org/1999/xlink" viewBox="0 0 1080 1080">
  <defs>
    <style>
      .cls-1 {
        clip-path: url(#clippath);
      }

      .cls-2 {
        fill: none;
      }

      .cls-2, .cls-3, .cls-4, .cls-5 {
        stroke-width: 0px;
      }

      .cls-6 {
        clip-path: url(#clippath-1);
      }

      .cls-3 {
        fill: #f8f3a0;
      }

      .cls-4 {
        fill: #fff;
      }

      .cls-5 {
        fill: #f15f53;
      }
    </style>
    <clipPath id="clippath">
      <rect class="cls-2" x="14.17" y="14.17" width="1051.65" height="1051.65"/>
    </clipPath>
    <clipPath id="clippath-1">
      <rect class="cls-2" x="14.17" y="14.17" width="1051.65" height="1051.65"/>
    </clipPath>
  </defs>
  <!-- <g class="cls-1">
    <path class="cls-5" d="m540,1065.83c290.41,0,525.83-235.42,525.83-525.83S830.41,14.17,540,14.17,14.17,249.59,14.17,540s235.42,525.83,525.83,525.83"/>
    <path class="cls-3" d="m347.61,559.5l-11.68,11.63-26.81,26.86-11.68,11.63-13.4,13.4c-7.41,7.41-19.42,7.44-26.86,0l-25.04-25.04,26.83-26.83,11.63,11.63,11.68-11.63,26.81-26.86,11.68-11.63,26.79-26.83,11.68-11.68,26.83-26.78,11.63-11.68,11-11,53.69-.02-37.86,37.86-11.63,11.68-26.83,26.79-11.68,11.68-26.79,26.83Z"/>
  </g> -->
  <polygon class="cls-3" points="672.35 388.62 655.44 405.53 643.8 417.2 616.96 444.01 616.3 444.67 562.69 444.67 578.49 428.88 590.16 417.2 616.99 390.4 618.74 388.62 672.35 388.62"/>
  <polygon class="cls-3" points="518.45 388.62 501.53 405.57 489.86 417.2 463.06 444.04 462.4 444.67 408.72 444.67 424.55 428.84 436.22 417.2 463.02 390.37 464.77 388.62 518.45 388.62"/>
  <g class="cls-6">
    <path class="cls-3" d="m347.61,559.5l-11.68,11.63-26.81,26.86-11.68,11.63-13.4,13.4c-7.41,7.41-19.42,7.44-26.86,0l-25.04-25.04,26.83-26.83,11.63,11.63,11.68-11.63,26.81-26.86,11.68-11.63,26.79-26.83,11.68-11.68,26.83-26.78,11.63-11.68,11-11,53.69-.02-37.86,37.86-11.63,11.68-26.83,26.79-11.68,11.68-26.79,26.83Z"/>
    <path class="cls-3" d="m489.85,494.15l-26.83,26.83-11.63,11.68-26.83,26.79-11.68,11.68-26.79,26.83-11.68,11.63-26.81,26.86-11.68,11.63-13.41,13.41c-7.37,7.37-19.23,7.44-26.67.19l-.3-.3c-7.25-7.39-7.2-19.33.14-26.67l25.08-25.09,26.86-26.81,11.63-11.68,65.3-65.3,11.68-11.63,26.81-26.86,22.68-22.68,15.83-15.78,11.63-11.68,28.58-28.58h53.62l-28.58,28.58-26.79,26.83-.68.63-11,11-26.81,26.86-11.68,11.63Z"/>
    <path class="cls-3" d="m258.98,571.16l-26.83,26.83-52.04-52.03c-7.27-7.41-7.25-19.33.14-26.72l13.4-13.4,11.68-11.63,26.81-26.86,11.68-11.63,11.01-11.05,27.46-27.46,26.83-26.79,1.75-1.79h53.62s-16.9,16.95-16.9,16.95l-38.49,38.49-.65.61-11.01,11.05-76.96,76.96,38.49,38.49Z"/>
    <path class="cls-3" d="m564.34,596.92c.2-.23.43-.49.66-.73.23-.23.49-.46.72-.66l-1.38,1.39Zm27.56-.73l-13.42-13.42-11.64-11.64-26.84,26.84,26.15,26.15c7.25,6.2,18.1,6.03,25.16-.49l1.12-1.12c6.89-7.48,6.69-19.09-.53-26.31"/>
    <path class="cls-3" d="m784.32,430.62c-7.42,7.42-19.42,7.42-26.84,0l-13.42-13.42-11.64-11.64-11.64,11.64-26.84,26.84-.63.63-11.01,11.04-26.84,26.8-11.67,11.67-26.8,26.84-11.67,11.64-26.8,26.84-11.67,11.64-26.84,26.84-11.64,11.67-26.84,26.8-11.64,11.67-26.84,26.84-11.67,11.64-26.8,26.84-11.67,11.67,25.39,25.39c7.09,7.42,6.96,19.19-.33,26.48s-19.42,7.42-26.84,0l-38.48-38.48c-7.42-7.42-7.42-19.42,0-26.84l13.42-13.39,11.67-11.67,26.8-26.84,11.67-11.64,26.84-26.84,11.64-11.67,26.84-26.81,11.64-11.67,26.84-26.84,11.67-11.64,26.81-26.84,11.67-11.64,26.8-26.84,22.68-22.68,15.83-15.79,11.64-11.67,26.84-26.84,1.75-1.75h73.46l15.17,15.17c7.42,7.42,7.42,19.42,0,26.84"/>
    <path class="cls-3" d="m899.93,545.96l-346.93,346.93c-7.32,6.85-18.81,6.83-26.11-.14-.12-.07-.21-.16-.3-.26-.14-.14-.23-.23-.33-.37-7.09-7.41-6.97-19.19.33-26.48l25.08-25.09,26.81-26.86,11.68-11.63,26.83-26.83,11.63-11.68,26.83-26.79,11.63-11.68,26.83-26.83,11.68-11.63,26.81-26.86,11.68-11.63,26.79-26.83,19.49-19.49,19.02-18.98,11.63-11.68,51.9-51.9c7.41-7.41,19.44-7.41,26.86,0,7.34,7.39,7.37,19.3.14,26.72"/>
    <path class="cls-3" d="m693.95,597.97l-11.68,11.63-26.81,26.86-11.68,11.63-26.83,26.83-11.63,11.68-26.83,26.79-11.63,11.68-26.83,26.83-11.68,11.63-26.81,26.86-11.66,11.66-13.43,13.38c-7.39,7.39-19.28,7.44-26.72.14l-.26-.26c-7.25-7.39-7.2-19.33.14-26.67l25.09-25.09,26.86-26.81,11.63-11.68,65.3-65.3,11.68-11.63,26.81-26.86,11.66-11.66,26.86-26.81,11.63-11.68,65.3-65.3,11.68-11.63,26.81-26.86,25.08-25.08c7.34-7.34,19.28-7.39,26.67-.14l.3.3c.7.7,1.31,1.45,1.84,2.26,1.86,2.56,2.98,5.5,3.38,8.51.12.91.16,1.8.12,2.68,0,4.8-1.89,9.58-5.53,13.22l-51.9,51.9-11.63,11.68-26.83,26.79-11.68,11.68-26.79,26.83Z"/>
    <path class="cls-3" d="m616.3,444.68l-101.76,101.76c-7.44,7.06-19.14,6.93-26.41-.35l-25.11-25.11,26.83-26.83,11.68,11.68,11.68-11.63,26.81-26.86,11.68-11.63,11-11.05,53.6.02Z"/>
    <path class="cls-3" d="m809.4,582.81l-19.02,18.98v-100.29l32.41-32.41c3.64-3.64,5.53-8.42,5.53-13.22h.05v107.94l-7.32,7.32-11.63,11.68Z"/>
    <path class="cls-4" d="m878.48,293.13v45.54l-41.04-46.67h-3.79v68.67h10.85v-45.74l41.14,46.87h3.68v-68.67h-10.85Zm-96.26,46.97h-22.62l11.36-27.94,11.26,27.94Zm8.7,20.57h11.67l-29.78-68.67h-3.68l-29.78,68.67h11.56l4.81-11.26h30.39l4.81,11.26Zm-93.5,0h10.85v-67.54h-10.85v67.54Zm-48.27-67.54v45.54l-41.04-46.67h-3.79v68.67h10.85v-45.74l41.14,46.87h3.68v-68.67h-10.85Zm-123.38,67.54h45.64v-9.72h-34.79v-21.39h25.28v-9.41h-25.28v-17.29h33.57v-9.72h-44.41v67.54Zm-43.25-67.54l-19.44,46.97-19.45-46.97h-12.18l29.78,68.67h3.68l29.78-68.67h-12.18Zm-87.26,33.67c0,14.43-10.44,25.07-24.25,25.07s-24.25-10.64-24.25-25.07,10.23-24.87,24.25-24.87,24.25,10.74,24.25,24.87m-59.76.1c-.41,19.34,16.07,35.2,35.41,34.9,19.14.31,35.92-15.55,35.51-34.9.41-19.34-16.37-35.2-35.51-34.9-19.24-.31-35.72,15.56-35.41,34.9m-67.4,33.77h41.75v-9.72h-30.91v-57.82h-10.85v67.54Zm-82.34-13.51c5.22,9.11,14.43,14.63,25.48,14.63,13,0,22.62-7.78,22.62-19.55,0-8.9-5.22-14.22-16.17-19.24l-7.57-3.48c-6.65-3.38-9-4.3-9.41-9.62,0-5.32,4.5-8.19,10.23-8.19s10.64,2.87,14.23,8.19l7.57-5.83c-4.2-7.27-12.28-12.08-21.8-12.08-11.67,0-21.29,7.27-21.29,18.32,0,9,5.93,14.22,15.76,18.73l7.47,3.48c7.06,3.28,9.93,5.32,9.93,10.13,0,5.73-4.71,9.42-11.67,9.42-7.78,0-13.2-4.2-17.71-10.74l-7.67,5.83Z"/>
  </g>
</svg>