<?xml version="1.0" standalone="no"?>
<!DOCTYPE svg PUBLIC "-//W3C//DTD SVG 20010904//EN"
 "http://www.w3.org/TR/2001/REC-SVG-20010904/DTD/svg10.dtd">
<svg version="1.0" xmlns="http://www.w3.org/2000/svg"
 width="4500.000000pt" height="4500.000000pt" viewBox="0 0 4500.000000 4500.000000"
 preserveAspectRatio="xMidYMid meet">
<metadata>
Created by potrace 1.14, written by Peter Selinger 2001-2017
</metadata>
<g transform="translate(0.000000,4500.000000) scale(0.100000,-0.100000)"
fill="#000000" stroke="none">
<path d="M22020 44399 c-416 -6 -607 -15 -1040 -44 -4792 -330 -9305 -2210
-12925 -5385 -375 -329 -570 -513 -1041 -984 -591 -591 -881 -907 -1357 -1479
-2322 -2786 -3900 -6071 -4626 -9628 -459 -2245 -558 -4629 -290 -6934 508
-4373 2319 -8471 5218 -11809 616 -710 1443 -1538 2146 -2151 2781 -2422 6085
-4090 9665 -4879 2557 -563 5223 -664 7825 -295 4178 591 8065 2367 11269
5148 378 328 601 536 1044 976 462 458 779 793 1133 1201 2273 2618 3882 5705
4713 9044 330 1325 524 2582 610 3950 55 861 55 1877 1 2740 -281 4476 -1896
8696 -4674 12210 -551 697 -1015 1216 -1705 1906 -685 685 -1092 1051 -1811
1627 -1484 1190 -3093 2168 -4825 2932 -1997 881 -4104 1457 -6255 1709 -1033
121 -1934 164 -3075 145z m-13128 -11569 c250 -24 455 -115 628 -277 76 -72
191 -217 179 -226 -2 -2 -72 -56 -156 -120 -143 -111 -173 -129 -173 -108 0
16 -151 171 -197 202 -120 83 -240 121 -383 121 -193 1 -330 -68 -392 -197
-22 -47 -28 -74 -28 -126 0 -106 23 -165 88 -229 65 -63 166 -118 491 -270
359 -167 462 -230 591 -359 164 -164 232 -370 200 -600 -26 -190 -88 -319
-215 -447 -238 -240 -631 -329 -1033 -234 -286 68 -541 248 -709 502 -25 36
-43 71 -40 75 3 5 76 63 163 128 138 104 158 116 166 100 6 -9 38 -52 72 -94
129 -158 290 -269 453 -312 95 -26 271 -31 353 -10 197 49 317 175 328 346 7
107 -16 174 -83 244 -69 72 -159 125 -430 251 -313 146 -399 190 -500 258 -92
62 -205 167 -251 235 -100 148 -136 340 -100 529 65 336 364 579 761 617 113
11 110 11 217 1z m6856 -21 c296 -57 546 -192 767 -413 218 -219 344 -454 401
-746 24 -127 25 -407 1 -536 -108 -588 -580 -1052 -1192 -1171 -123 -24 -413
-24 -542 0 -297 54 -575 201 -787 413 -194 194 -330 440 -391 710 -26 111 -32
428 -10 556 107 644 645 1143 1305 1208 120 12 327 2 448 -21z m10443 -940
l854 -972 3 947 2 946 225 0 225 0 0 -1435 0 -1435 -77 0 -78 1 -855 974 -855
975 -3 -950 -2 -950 -225 0 -225 0 0 1435 0 1435 78 0 79 0 854 -971z m6630
-459 c340 -784 619 -1428 619 -1432 0 -5 -110 -8 -244 -8 l-244 0 -99 233
-100 232 -632 0 -633 0 -97 -230 -98 -230 -247 -3 c-136 -1 -245 1 -243 5 3 5
278 638 612 1408 334 770 614 1413 622 1428 14 27 16 28 90 25 l76 -3 618
-1425z m2126 1366 c32 -35 416 -471 853 -968 l795 -905 3 944 2 943 230 0 230
0 0 -1435 0 -1435 -79 0 -79 0 -854 972 -853 973 -3 -948 -2 -947 -230 0 -230
0 0 1428 c0 786 3 1432 7 1435 3 4 39 7 79 7 l72 0 59 -64z m-23317 -1191 l0
-1205 640 0 640 0 0 -205 0 -205 -870 0 -870 0 0 1410 0 1410 230 0 230 0 0
-1205z m7255 243 c219 -530 401 -969 404 -976 4 -7 189 426 411 963 l403 975
254 0 c147 0 253 -4 253 -9 0 -9 -1210 -2804 -1230 -2842 -9 -16 -22 -19 -85
-19 -62 0 -76 3 -84 18 -20 37 -1231 2835 -1231 2843 0 5 112 9 253 9 l254 0
398 -962z m4875 757 l0 -205 -700 0 -700 0 0 -360 0 -360 530 0 530 0 0 -195
0 -195 -530 0 -530 0 0 -445 0 -445 725 0 725 0 0 -205 0 -205 -955 0 -955 0
0 1410 0 1410 930 0 930 0 0 -205z m5750 -1205 l0 -1410 -225 0 -225 0 0 1410
0 1410 225 0 225 0 0 -1410z m-17318 -5573 l-3002 -3002 1043 -1043 1042
-1042 4045 4045 4045 4045 1120 0 1120 0 -4905 -4906 c-2698 -2698 -4932
-4925 -4966 -4950 -213 -153 -510 -189 -754 -91 -144 59 -101 18 -1843 1757
-918 916 -1688 1692 -1713 1726 -189 263 -195 630 -13 901 17 27 1272 1289
2788 2806 l2756 2757 1120 0 1120 0 -3003 -3003z m10423 803 l-2200 -2200 243
-242 242 -243 2442 2443 2443 2442 1114 0 1115 0 -459 -462 c-1266 -1275
-6051 -6060 -6124 -6125 -139 -122 -272 -183 -447 -205 -112 -13 -226 -1 -341
37 -164 55 -170 60 -783 671 l-565 564 -2915 -2916 c-1603 -1604 -2947 -2944
-2986 -2977 -89 -77 -183 -128 -299 -163 -75 -22 -109 -27 -210 -27 -150 -1
-226 17 -363 84 -90 44 -115 62 -195 142 -167 167 -237 333 -237 562 0 155 34
279 111 413 26 44 1211 1236 5204 5230 l5170 5172 1120 0 1120 0 -2200 -2200z
m9797 1833 l365 -368 47 -95 c62 -127 86 -226 86 -355 0 -123 -13 -196 -51
-296 -91 -238 -299 -419 -554 -485 -109 -28 -285 -24 -398 10 -94 28 -165 60
-237 109 -25 16 -293 277 -595 578 -303 302 -555 549 -560 549 -6 0 -1559
-1549 -3452 -3442 l-3443 -3443 554 -555 c304 -305 567 -575 583 -600 49 -72
81 -143 109 -237 33 -112 38 -288 9 -398 -61 -240 -224 -437 -447 -539 -113
-52 -196 -69 -328 -69 -138 1 -235 24 -360 85 -84 41 -89 46 -663 617 l-577
576 -2647 -2647 -2648 -2648 561 -562 c582 -584 603 -608 659 -745 43 -108 58
-204 52 -332 -7 -137 -24 -207 -78 -318 -76 -154 -204 -280 -364 -358 -125
-61 -204 -79 -350 -78 -147 0 -236 22 -368 89 l-92 47 -868 866 c-478 476
-889 894 -913 928 -55 75 -106 185 -130 278 -28 110 -24 286 10 398 28 94 60
164 109 237 16 25 3072 3088 6791 6808 l6761 6762 1530 0 1531 0 366 -367z
m1516 -1664 c40 -10 114 -40 165 -66 75 -38 109 -64 187 -143 79 -78 105 -112
143 -187 26 -51 58 -128 70 -170 l22 -78 3 -2310 2 -2309 973 970 972 971 90
46 c216 110 432 125 652 45 179 -65 345 -213 428 -381 62 -127 85 -223 85
-362 0 -140 -23 -235 -86 -365 l-47 -95 -7291 -7293 c-5791 -5793 -7306 -7303
-7365 -7342 -351 -233 -836 -137 -1081 213 -182 258 -187 616 -14 884 25 39
1830 1851 5566 5588 l5528 5530 0 2085 0 2085 -6562 -6561 c-3610 -3609 -6585
-6577 -6613 -6596 -73 -51 -163 -95 -252 -120 -65 -19 -102 -23 -218 -23 -132
1 -146 3 -235 33 -122 42 -214 97 -301 180 -277 261 -328 689 -120 1004 39 57
1606 1629 7342 7364 l7294 7291 90 45 c191 96 375 118 573 67z"/>
<path d="M15325 32409 c-243 -31 -489 -163 -638 -343 -279 -339 -313 -868 -81
-1258 63 -105 203 -248 305 -311 176 -109 337 -152 559 -151 123 1 160 5 245
28 191 50 333 134 472 279 289 301 363 794 179 1192 -181 392 -601 619 -1041
564z"/>
<path d="M32118 31969 c-3 -8 -106 -259 -228 -559 -123 -300 -225 -553 -227
-562 -5 -17 22 -18 460 -18 l466 0 -225 558 c-123 306 -228 566 -232 576 -7
15 -10 17 -14 5z"/>
</g>
</svg>
